<?xml version="1.0" encoding="UTF-8" standalone="no"?>
<!-- Created with Inkscape (http://www.inkscape.org/) -->

<svg
   width="129.77863mm"
   height="67.818352mm"
   viewBox="0 0 129.77863 67.818352"
   version="1.1"
   id="svg5"
   sodipodi:docname="trees.svg"
   inkscape:version="1.1 (c68e22c387, 2021-05-23)"
   xmlns:inkscape="http://www.inkscape.org/namespaces/inkscape"
   xmlns:sodipodi="http://sodipodi.sourceforge.net/DTD/sodipodi-0.dtd"
   xmlns:xlink="http://www.w3.org/1999/xlink"
   xmlns="http://www.w3.org/2000/svg"
   xmlns:svg="http://www.w3.org/2000/svg">
  <sodipodi:namedview
     id="namedview7"
     pagecolor="#ffffff"
     bordercolor="#666666"
     borderopacity="1.0"
     inkscape:pageshadow="2"
     inkscape:pageopacity="0.0"
     inkscape:pagecheckerboard="0"
     inkscape:document-units="mm"
     showgrid="false"
     inkscape:zoom="2.0460067"
     inkscape:cx="294.47606"
     inkscape:cy="118.52356"
     inkscape:window-width="1902"
     inkscape:window-height="991"
     inkscape:window-x="-10"
     inkscape:window-y="0"
     inkscape:window-maximized="0"
     inkscape:current-layer="layer1" />
  <defs
     id="defs2">
    <marker
       style="overflow:visible"
       id="Arrow2Lend"
       refX="0"
       refY="0"
       orient="auto"
       inkscape:stockid="Arrow2Lend"
       inkscape:isstock="true">
      <path
         transform="matrix(-1.1,0,0,-1.1,-1.1,0)"
         d="M 8.7185878,4.0337352 -2.2072895,0.01601326 8.7185884,-4.0017078 c -1.7454984,2.3720609 -1.7354408,5.6174519 -6e-7,8.035443 z"
         style="fill:context-stroke;fill-rule:evenodd;stroke-width:0.625;stroke-linejoin:round"
         id="path9323" />
    </marker>
    <marker
       style="overflow:visible"
       id="Arrow1Lend"
       refX="0"
       refY="0"
       orient="auto"
       inkscape:stockid="Arrow1Lend"
       inkscape:isstock="true">
      <path
         transform="matrix(-0.8,0,0,-0.8,-10,0)"
         style="fill:context-stroke;fill-rule:evenodd;stroke:context-stroke;stroke-width:1pt"
         d="M 0,0 5,-5 -12.5,0 5,5 Z"
         id="path9305" />
    </marker>
    <inkscape:path-effect
       effect="skeletal"
       id="path-effect8356"
       is_visible="true"
       lpeversion="1"
       pattern="M 0,0 H 1"
       copytype="single_stretched"
       prop_scale="1"
       scale_y_rel="false"
       spacing="0"
       normal_offset="0"
       tang_offset="0"
       prop_units="false"
       vertical_pattern="false"
       hide_knot="false"
       fuse_tolerance="0" />
    <g
       id="g5149">
      <symbol
         overflow="visible"
         id="symbol6540">
        <path
           style="stroke:none"
           d=""
           id="path1907" />
      </symbol>
      <symbol
         overflow="visible"
         id="symbol3544">
        <path
           style="stroke:none"
           d="m 4.578125,-3.1875 c 0,-0.796875 -0.046875,-1.59375 -0.390625,-2.328125 -0.453125,-0.96875 -1.28125,-1.125 -1.6875,-1.125 -0.609375,0 -1.328125,0.265625 -1.75,1.1875 -0.3125,0.6875 -0.359375,1.46875 -0.359375,2.265625 0,0.75 0.03125,1.640625 0.453125,2.40625 0.421875,0.796875 1.15625,1 1.640625,1 0.53125,0 1.296875,-0.203125 1.734375,-1.15625 0.3125,-0.6875 0.359375,-1.46875 0.359375,-2.25 z M 2.484375,0 C 2.09375,0 1.5,-0.25 1.328125,-1.203125 1.21875,-1.796875 1.21875,-2.71875 1.21875,-3.3125 c 0,-0.640625 0,-1.296875 0.078125,-1.828125 0.1875,-1.1875 0.9375,-1.28125 1.1875,-1.28125 0.328125,0 0.984375,0.1875 1.171875,1.171875 0.109375,0.5625 0.109375,1.3125 0.109375,1.9375 0,0.75 0,1.421875 -0.109375,2.0625 C 3.5,-0.296875 2.9375,0 2.484375,0 Z m 0,0"
           id="path9200" />
      </symbol>
    </g>
    <g
       id="g9741">
      <symbol
         overflow="visible"
         id="symbol8519">
        <path
           style="stroke:none"
           d=""
           id="path7427" />
      </symbol>
      <symbol
         overflow="visible"
         id="symbol727">
        <path
           style="stroke:none"
           d="m 2.9375,-6.375 c 0,-0.25 0,-0.265625 -0.234375,-0.265625 C 2.078125,-6 1.203125,-6 0.890625,-6 v 0.3125 c 0.203125,0 0.78125,0 1.296875,-0.265625 v 5.171875 c 0,0.359375 -0.03125,0.46875 -0.921875,0.46875 h -0.3125 V 0 c 0.34375,-0.03125 1.203125,-0.03125 1.609375,-0.03125 0.390625,0 1.265625,0 1.609375,0.03125 v -0.3125 h -0.3125 c -0.90625,0 -0.921875,-0.109375 -0.921875,-0.46875 z m 0,0"
           id="path8735" />
      </symbol>
    </g>
    <g
       id="g3063">
      <symbol
         overflow="visible"
         id="symbol8341">
        <path
           style="stroke:none"
           d=""
           id="path5880" />
      </symbol>
      <symbol
         overflow="visible"
         id="symbol9887">
        <path
           style="stroke:none"
           d="m 1.265625,-0.765625 1.0625,-1.03125 c 1.546875,-1.375 2.140625,-1.90625 2.140625,-2.90625 0,-1.140625 -0.890625,-1.9375 -2.109375,-1.9375 -1.125,0 -1.859375,0.921875 -1.859375,1.8125 0,0.546875 0.5,0.546875 0.53125,0.546875 0.171875,0 0.515625,-0.109375 0.515625,-0.53125 0,-0.25 -0.1875,-0.515625 -0.53125,-0.515625 -0.078125,0 -0.09375,0 -0.125,0.015625 0.21875,-0.65625 0.765625,-1.015625 1.34375,-1.015625 0.90625,0 1.328125,0.8125 1.328125,1.625 C 3.5625,-3.90625 3.078125,-3.125 2.515625,-2.5 l -1.90625,2.125 C 0.5,-0.265625 0.5,-0.234375 0.5,0 H 4.203125 L 4.46875,-1.734375 H 4.234375 C 4.171875,-1.4375 4.109375,-1 4,-0.84375 3.9375,-0.765625 3.28125,-0.765625 3.0625,-0.765625 Z m 0,0"
           id="path2160" />
      </symbol>
    </g>
    <g
       id="g4258">
      <symbol
         overflow="visible"
         id="symbol3120">
        <path
           style="stroke:none"
           d=""
           id="path5027" />
      </symbol>
      <symbol
         overflow="visible"
         id="symbol4542">
        <path
           style="stroke:none"
           d="m 2.890625,-3.515625 c 0.8125,-0.265625 1.390625,-0.953125 1.390625,-1.75 0,-0.8125 -0.875,-1.375 -1.828125,-1.375 -1,0 -1.765625,0.59375 -1.765625,1.359375 0,0.328125 0.21875,0.515625 0.515625,0.515625 0.296875,0 0.5,-0.21875 0.5,-0.515625 0,-0.484375 -0.46875,-0.484375 -0.609375,-0.484375 0.296875,-0.5 0.953125,-0.625 1.3125,-0.625 0.421875,0 0.96875,0.21875 0.96875,1.109375 0,0.125 -0.03125,0.703125 -0.28125,1.140625 C 2.796875,-3.65625 2.453125,-3.625 2.203125,-3.625 2.125,-3.609375 1.890625,-3.59375 1.8125,-3.59375 c -0.078125,0.015625 -0.140625,0.03125 -0.140625,0.125 0,0.109375 0.0625,0.109375 0.234375,0.109375 h 0.4375 c 0.8125,0 1.1875,0.671875 1.1875,1.65625 0,1.359375 -0.6875,1.640625 -1.125,1.640625 -0.4375,0 -1.1875,-0.171875 -1.53125,-0.75 0.34375,0.046875 0.65625,-0.171875 0.65625,-0.546875 0,-0.359375 -0.265625,-0.5625 -0.546875,-0.5625 -0.25,0 -0.5625,0.140625 -0.5625,0.578125 0,0.90625 0.921875,1.5625 2.015625,1.5625 1.21875,0 2.125,-0.90625 2.125,-1.921875 0,-0.8125 -0.640625,-1.59375 -1.671875,-1.8125 z m 0,0"
           id="path2721" />
      </symbol>
    </g>
    <g
       id="g2813">
      <symbol
         overflow="visible"
         id="symbol3616">
        <path
           style="stroke:none"
           d=""
           id="path3284" />
      </symbol>
      <symbol
         overflow="visible"
         id="symbol6794">
        <path
           style="stroke:none"
           d="m 2.15625,1.171875 c 0,0.390625 -0.265625,1.03125 -1.34375,1.09375 C 0.75,2.28125 0.71875,2.328125 0.71875,2.375 0.71875,2.5 0.828125,2.5 0.921875,2.5 1.890625,2.5 2.8125,2 2.828125,1.25 v -2.28125 c 0,-0.390625 0,-0.703125 0.390625,-1.03125 C 3.5625,-2.359375 3.953125,-2.375 4.171875,-2.375 4.21875,-2.390625 4.25,-2.4375 4.25,-2.5 4.25,-2.59375 4.203125,-2.59375 4.09375,-2.609375 3.4375,-2.640625 2.953125,-3 2.84375,-3.484375 2.828125,-3.59375 2.828125,-3.625 2.828125,-3.984375 v -1.96875 c 0,-0.421875 0,-0.734375 -0.484375,-1.109375 C 1.9375,-7.375 1.25,-7.484375 0.921875,-7.484375 c -0.09375,0 -0.203125,0 -0.203125,0.125 0,0.09375 0.0625,0.09375 0.15625,0.109375 0.625,0.03125 1.125,0.359375 1.25,0.859375 0.03125,0.09375 0.03125,0.109375 0.03125,0.46875 v 2.09375 c 0,0.453125 0.078125,0.625 0.390625,0.953125 0.21875,0.203125 0.5,0.296875 0.78125,0.375 -0.8125,0.234375 -1.171875,0.703125 -1.171875,1.28125 z m 0,0"
           id="path8523" />
      </symbol>
    </g>
    <g
       id="g5608">
      <symbol
         overflow="visible"
         id="symbol1263">
        <path
           style="stroke:none"
           d=""
           id="path6960" />
      </symbol>
      <symbol
         overflow="visible"
         id="symbol9726">
        <path
           style="stroke:none"
           d="M 3.71875,-3.765625 C 3.53125,-4.140625 3.25,-4.40625 2.796875,-4.40625 c -1.15625,0 -2.390625,1.46875 -2.390625,2.921875 0,0.9375 0.546875,1.59375 1.3125,1.59375 0.203125,0 0.703125,-0.046875 1.296875,-0.75 0.078125,0.421875 0.4375,0.75 0.90625,0.75 0.359375,0 0.578125,-0.234375 0.75,-0.546875 0.15625,-0.359375 0.296875,-0.96875 0.296875,-0.984375 0,-0.109375 -0.09375,-0.109375 -0.125,-0.109375 -0.09375,0 -0.109375,0.046875 -0.140625,0.1875 -0.171875,0.640625 -0.34375,1.234375 -0.75,1.234375 -0.28125,0 -0.296875,-0.265625 -0.296875,-0.453125 0,-0.21875 0.015625,-0.3125 0.125,-0.75 C 3.890625,-1.71875 3.90625,-1.828125 4,-2.203125 L 4.359375,-3.59375 c 0.0625,-0.28125 0.0625,-0.296875 0.0625,-0.34375 0,-0.171875 -0.109375,-0.265625 -0.28125,-0.265625 -0.25,0 -0.390625,0.21875 -0.421875,0.4375 z M 3.078125,-1.1875 C 3.015625,-1 3.015625,-0.984375 2.875,-0.8125 2.4375,-0.265625 2.03125,-0.109375 1.75,-0.109375 c -0.5,0 -0.640625,-0.546875 -0.640625,-0.9375 0,-0.5 0.3125,-1.71875 0.546875,-2.1875 0.3125,-0.578125 0.75,-0.953125 1.15625,-0.953125 0.640625,0 0.78125,0.8125 0.78125,0.875 0,0.0625 -0.015625,0.125 -0.03125,0.171875 z m 0,0"
           id="path9116" />
      </symbol>
      <symbol
         overflow="visible"
         id="symbol9519">
        <path
           style="stroke:none"
           d=""
           id="path2402" />
      </symbol>
      <symbol
         overflow="visible"
         id="symbol5699">
        <path
           style="stroke:none"
           d="M 3.59375,-2.21875 C 3.59375,-2.984375 3.5,-3.546875 3.1875,-4.03125 2.96875,-4.34375 2.53125,-4.625 1.984375,-4.625 c -1.625,0 -1.625,1.90625 -1.625,2.40625 0,0.5 0,2.359375 1.625,2.359375 1.609375,0 1.609375,-1.859375 1.609375,-2.359375 z M 1.984375,-0.0625 c -0.328125,0 -0.75,-0.1875 -0.890625,-0.75 C 1,-1.21875 1,-1.796875 1,-2.3125 1,-2.828125 1,-3.359375 1.09375,-3.734375 1.25,-4.28125 1.6875,-4.4375 1.984375,-4.4375 c 0.375,0 0.734375,0.234375 0.859375,0.640625 0.109375,0.375 0.125,0.875 0.125,1.484375 0,0.515625 0,1.03125 -0.09375,1.46875 -0.140625,0.640625 -0.609375,0.78125 -0.890625,0.78125 z m 0,0"
           id="path1845" />
      </symbol>
      <symbol
         overflow="visible"
         id="symbol1886">
        <path
           style="stroke:none"
           d=""
           id="path232" />
      </symbol>
      <symbol
         overflow="visible"
         id="symbol7855">
        <path
           style="stroke:none"
           d="m 6.84375,-3.265625 c 0.15625,0 0.34375,0 0.34375,-0.1875 C 7.1875,-3.65625 7,-3.65625 6.859375,-3.65625 h -5.96875 c -0.140625,0 -0.328125,0 -0.328125,0.203125 0,0.1875 0.1875,0.1875 0.328125,0.1875 z m 0.015625,1.9375 c 0.140625,0 0.328125,0 0.328125,-0.203125 0,-0.1875 -0.1875,-0.1875 -0.34375,-0.1875 H 0.890625 c -0.140625,0 -0.328125,0 -0.328125,0.1875 0,0.203125 0.1875,0.203125 0.328125,0.203125 z m 0,0"
           id="path2842" />
      </symbol>
      <symbol
         overflow="visible"
         id="symbol3226">
        <path
           style="stroke:none"
           d="m 4.578125,-3.1875 c 0,-0.796875 -0.046875,-1.59375 -0.390625,-2.328125 -0.453125,-0.96875 -1.28125,-1.125 -1.6875,-1.125 -0.609375,0 -1.328125,0.265625 -1.75,1.1875 -0.3125,0.6875 -0.359375,1.46875 -0.359375,2.265625 0,0.75 0.03125,1.640625 0.453125,2.40625 0.421875,0.796875 1.15625,1 1.640625,1 0.53125,0 1.296875,-0.203125 1.734375,-1.15625 0.3125,-0.6875 0.359375,-1.46875 0.359375,-2.25 z M 2.484375,0 C 2.09375,0 1.5,-0.25 1.328125,-1.203125 1.21875,-1.796875 1.21875,-2.71875 1.21875,-3.3125 c 0,-0.640625 0,-1.296875 0.078125,-1.828125 0.1875,-1.1875 0.9375,-1.28125 1.1875,-1.28125 0.328125,0 0.984375,0.1875 1.171875,1.171875 0.109375,0.5625 0.109375,1.3125 0.109375,1.9375 0,0.75 0,1.421875 -0.109375,2.0625 C 3.5,-0.296875 2.9375,0 2.484375,0 Z m 0,0"
           id="path6259" />
      </symbol>
    </g>
    <g
       id="g8720">
      <symbol
         overflow="visible"
         id="symbol8076">
        <path
           style="stroke:none"
           d=""
           id="path1165" />
      </symbol>
      <symbol
         overflow="visible"
         id="symbol9576">
        <path
           style="stroke:none"
           d="M 3.71875,-3.765625 C 3.53125,-4.140625 3.25,-4.40625 2.796875,-4.40625 c -1.15625,0 -2.390625,1.46875 -2.390625,2.921875 0,0.9375 0.546875,1.59375 1.3125,1.59375 0.203125,0 0.703125,-0.046875 1.296875,-0.75 0.078125,0.421875 0.4375,0.75 0.90625,0.75 0.359375,0 0.578125,-0.234375 0.75,-0.546875 0.15625,-0.359375 0.296875,-0.96875 0.296875,-0.984375 0,-0.109375 -0.09375,-0.109375 -0.125,-0.109375 -0.09375,0 -0.109375,0.046875 -0.140625,0.1875 -0.171875,0.640625 -0.34375,1.234375 -0.75,1.234375 -0.28125,0 -0.296875,-0.265625 -0.296875,-0.453125 0,-0.21875 0.015625,-0.3125 0.125,-0.75 C 3.890625,-1.71875 3.90625,-1.828125 4,-2.203125 L 4.359375,-3.59375 c 0.0625,-0.28125 0.0625,-0.296875 0.0625,-0.34375 0,-0.171875 -0.109375,-0.265625 -0.28125,-0.265625 -0.25,0 -0.390625,0.21875 -0.421875,0.4375 z M 3.078125,-1.1875 C 3.015625,-1 3.015625,-0.984375 2.875,-0.8125 2.4375,-0.265625 2.03125,-0.109375 1.75,-0.109375 c -0.5,0 -0.640625,-0.546875 -0.640625,-0.9375 0,-0.5 0.3125,-1.71875 0.546875,-2.1875 0.3125,-0.578125 0.75,-0.953125 1.15625,-0.953125 0.640625,0 0.78125,0.8125 0.78125,0.875 0,0.0625 -0.015625,0.125 -0.03125,0.171875 z m 0,0"
           id="path6256" />
      </symbol>
      <symbol
         overflow="visible"
         id="symbol8223">
        <path
           style="stroke:none"
           d=""
           id="path4733" />
      </symbol>
      <symbol
         overflow="visible"
         id="symbol5611">
        <path
           style="stroke:none"
           d="m 2.328125,-4.4375 c 0,-0.1875 0,-0.1875 -0.203125,-0.1875 -0.453125,0.4375 -1.078125,0.4375 -1.359375,0.4375 v 0.25 c 0.15625,0 0.625,0 1,-0.1875 v 3.546875 c 0,0.234375 0,0.328125 -0.6875,0.328125 H 0.8125 V 0 c 0.125,0 0.984375,-0.03125 1.234375,-0.03125 0.21875,0 1.09375,0.03125 1.25,0.03125 V -0.25 H 3.03125 c -0.703125,0 -0.703125,-0.09375 -0.703125,-0.328125 z m 0,0"
           id="path723" />
      </symbol>
      <symbol
         overflow="visible"
         id="symbol9170">
        <path
           style="stroke:none"
           d=""
           id="path3837" />
      </symbol>
      <symbol
         overflow="visible"
         id="symbol2687">
        <path
           style="stroke:none"
           d="m 6.84375,-3.265625 c 0.15625,0 0.34375,0 0.34375,-0.1875 C 7.1875,-3.65625 7,-3.65625 6.859375,-3.65625 h -5.96875 c -0.140625,0 -0.328125,0 -0.328125,0.203125 0,0.1875 0.1875,0.1875 0.328125,0.1875 z m 0.015625,1.9375 c 0.140625,0 0.328125,0 0.328125,-0.203125 0,-0.1875 -0.1875,-0.1875 -0.34375,-0.1875 H 0.890625 c -0.140625,0 -0.328125,0 -0.328125,0.1875 0,0.203125 0.1875,0.203125 0.328125,0.203125 z m 0,0"
           id="path5071" />
      </symbol>
      <symbol
         overflow="visible"
         id="symbol7920">
        <path
           style="stroke:none"
           d="m 2.9375,-6.375 c 0,-0.25 0,-0.265625 -0.234375,-0.265625 C 2.078125,-6 1.203125,-6 0.890625,-6 v 0.3125 c 0.203125,0 0.78125,0 1.296875,-0.265625 v 5.171875 c 0,0.359375 -0.03125,0.46875 -0.921875,0.46875 h -0.3125 V 0 c 0.34375,-0.03125 1.203125,-0.03125 1.609375,-0.03125 0.390625,0 1.265625,0 1.609375,0.03125 v -0.3125 h -0.3125 c -0.90625,0 -0.921875,-0.109375 -0.921875,-0.46875 z m 0,0"
           id="path7552" />
      </symbol>
    </g>
    <g
       id="g758">
      <symbol
         overflow="visible"
         id="symbol1019">
        <path
           style="stroke:none"
           d=""
           id="path6642" />
      </symbol>
      <symbol
         overflow="visible"
         id="symbol7649">
        <path
           style="stroke:none"
           d="M 3.71875,-3.765625 C 3.53125,-4.140625 3.25,-4.40625 2.796875,-4.40625 c -1.15625,0 -2.390625,1.46875 -2.390625,2.921875 0,0.9375 0.546875,1.59375 1.3125,1.59375 0.203125,0 0.703125,-0.046875 1.296875,-0.75 0.078125,0.421875 0.4375,0.75 0.90625,0.75 0.359375,0 0.578125,-0.234375 0.75,-0.546875 0.15625,-0.359375 0.296875,-0.96875 0.296875,-0.984375 0,-0.109375 -0.09375,-0.109375 -0.125,-0.109375 -0.09375,0 -0.109375,0.046875 -0.140625,0.1875 -0.171875,0.640625 -0.34375,1.234375 -0.75,1.234375 -0.28125,0 -0.296875,-0.265625 -0.296875,-0.453125 0,-0.21875 0.015625,-0.3125 0.125,-0.75 C 3.890625,-1.71875 3.90625,-1.828125 4,-2.203125 L 4.359375,-3.59375 c 0.0625,-0.28125 0.0625,-0.296875 0.0625,-0.34375 0,-0.171875 -0.109375,-0.265625 -0.28125,-0.265625 -0.25,0 -0.390625,0.21875 -0.421875,0.4375 z M 3.078125,-1.1875 C 3.015625,-1 3.015625,-0.984375 2.875,-0.8125 2.4375,-0.265625 2.03125,-0.109375 1.75,-0.109375 c -0.5,0 -0.640625,-0.546875 -0.640625,-0.9375 0,-0.5 0.3125,-1.71875 0.546875,-2.1875 0.3125,-0.578125 0.75,-0.953125 1.15625,-0.953125 0.640625,0 0.78125,0.8125 0.78125,0.875 0,0.0625 -0.015625,0.125 -0.03125,0.171875 z m 0,0"
           id="path7793" />
      </symbol>
      <symbol
         overflow="visible"
         id="symbol5317">
        <path
           style="stroke:none"
           d=""
           id="path1827" />
      </symbol>
      <symbol
         overflow="visible"
         id="symbol3547">
        <path
           style="stroke:none"
           d="M 3.515625,-1.265625 H 3.28125 c -0.015625,0.15625 -0.09375,0.5625 -0.1875,0.625 C 3.046875,-0.59375 2.515625,-0.59375 2.40625,-0.59375 H 1.125 c 0.734375,-0.640625 0.984375,-0.84375 1.390625,-1.171875 0.515625,-0.40625 1,-0.84375 1,-1.5 0,-0.84375 -0.734375,-1.359375 -1.625,-1.359375 -0.859375,0 -1.453125,0.609375 -1.453125,1.25 0,0.34375 0.296875,0.390625 0.375,0.390625 0.15625,0 0.359375,-0.125 0.359375,-0.375 0,-0.125 -0.046875,-0.375 -0.40625,-0.375 C 0.984375,-4.21875 1.453125,-4.375 1.78125,-4.375 c 0.703125,0 1.0625,0.546875 1.0625,1.109375 0,0.609375 -0.4375,1.078125 -0.65625,1.328125 L 0.515625,-0.265625 C 0.4375,-0.203125 0.4375,-0.1875 0.4375,0 h 2.875 z m 0,0"
           id="path8077" />
      </symbol>
      <symbol
         overflow="visible"
         id="symbol5598">
        <path
           style="stroke:none"
           d=""
           id="path1448" />
      </symbol>
      <symbol
         overflow="visible"
         id="symbol6781">
        <path
           style="stroke:none"
           d="m 6.84375,-3.265625 c 0.15625,0 0.34375,0 0.34375,-0.1875 C 7.1875,-3.65625 7,-3.65625 6.859375,-3.65625 h -5.96875 c -0.140625,0 -0.328125,0 -0.328125,0.203125 0,0.1875 0.1875,0.1875 0.328125,0.1875 z m 0.015625,1.9375 c 0.140625,0 0.328125,0 0.328125,-0.203125 0,-0.1875 -0.1875,-0.1875 -0.34375,-0.1875 H 0.890625 c -0.140625,0 -0.328125,0 -0.328125,0.1875 0,0.203125 0.1875,0.203125 0.328125,0.203125 z m 0,0"
           id="path7250" />
      </symbol>
      <symbol
         overflow="visible"
         id="symbol5372">
        <path
           style="stroke:none"
           d="m 2.9375,-6.375 c 0,-0.25 0,-0.265625 -0.234375,-0.265625 C 2.078125,-6 1.203125,-6 0.890625,-6 v 0.3125 c 0.203125,0 0.78125,0 1.296875,-0.265625 v 5.171875 c 0,0.359375 -0.03125,0.46875 -0.921875,0.46875 h -0.3125 V 0 c 0.34375,-0.03125 1.203125,-0.03125 1.609375,-0.03125 0.390625,0 1.265625,0 1.609375,0.03125 v -0.3125 h -0.3125 c -0.90625,0 -0.921875,-0.109375 -0.921875,-0.46875 z m 0,0"
           id="path7773" />
      </symbol>
    </g>
    <g
       id="g7514">
      <symbol
         overflow="visible"
         id="symbol2903">
        <path
           style="stroke:none"
           d=""
           id="path7130" />
      </symbol>
      <symbol
         overflow="visible"
         id="symbol3979">
        <path
           style="stroke:none"
           d="M 3.71875,-3.765625 C 3.53125,-4.140625 3.25,-4.40625 2.796875,-4.40625 c -1.15625,0 -2.390625,1.46875 -2.390625,2.921875 0,0.9375 0.546875,1.59375 1.3125,1.59375 0.203125,0 0.703125,-0.046875 1.296875,-0.75 0.078125,0.421875 0.4375,0.75 0.90625,0.75 0.359375,0 0.578125,-0.234375 0.75,-0.546875 0.15625,-0.359375 0.296875,-0.96875 0.296875,-0.984375 0,-0.109375 -0.09375,-0.109375 -0.125,-0.109375 -0.09375,0 -0.109375,0.046875 -0.140625,0.1875 -0.171875,0.640625 -0.34375,1.234375 -0.75,1.234375 -0.28125,0 -0.296875,-0.265625 -0.296875,-0.453125 0,-0.21875 0.015625,-0.3125 0.125,-0.75 C 3.890625,-1.71875 3.90625,-1.828125 4,-2.203125 L 4.359375,-3.59375 c 0.0625,-0.28125 0.0625,-0.296875 0.0625,-0.34375 0,-0.171875 -0.109375,-0.265625 -0.28125,-0.265625 -0.25,0 -0.390625,0.21875 -0.421875,0.4375 z M 3.078125,-1.1875 C 3.015625,-1 3.015625,-0.984375 2.875,-0.8125 2.4375,-0.265625 2.03125,-0.109375 1.75,-0.109375 c -0.5,0 -0.640625,-0.546875 -0.640625,-0.9375 0,-0.5 0.3125,-1.71875 0.546875,-2.1875 0.3125,-0.578125 0.75,-0.953125 1.15625,-0.953125 0.640625,0 0.78125,0.8125 0.78125,0.875 0,0.0625 -0.015625,0.125 -0.03125,0.171875 z m 0,0"
           id="path3499" />
      </symbol>
      <symbol
         overflow="visible"
         id="symbol6314">
        <path
           style="stroke:none"
           d=""
           id="path9375" />
      </symbol>
      <symbol
         overflow="visible"
         id="symbol5">
        <path
           style="stroke:none"
           d="m 1.90625,-2.328125 c 0.546875,0 0.9375,0.375 0.9375,1.125 0,0.859375 -0.515625,1.125 -0.90625,1.125 -0.28125,0 -0.90625,-0.078125 -1.1875,-0.5 0.328125,0 0.40625,-0.234375 0.40625,-0.390625 0,-0.21875 -0.171875,-0.375 -0.390625,-0.375 -0.1875,0 -0.390625,0.125 -0.390625,0.40625 0,0.65625 0.71875,1.078125 1.5625,1.078125 0.96875,0 1.640625,-0.65625 1.640625,-1.34375 0,-0.546875 -0.4375,-1.09375 -1.203125,-1.25 0.71875,-0.265625 0.984375,-0.78125 0.984375,-1.21875 0,-0.546875 -0.625,-0.953125 -1.40625,-0.953125 -0.765625,0 -1.359375,0.375 -1.359375,0.9375 0,0.234375 0.15625,0.359375 0.359375,0.359375 0.21875,0 0.359375,-0.15625 0.359375,-0.34375 0,-0.203125 -0.140625,-0.359375 -0.359375,-0.375 0.25,-0.296875 0.71875,-0.375 0.984375,-0.375 0.3125,0 0.75,0.15625 0.75,0.75 0,0.296875 -0.09375,0.625 -0.28125,0.828125 -0.21875,0.265625 -0.421875,0.28125 -0.765625,0.3125 -0.171875,0.015625 -0.1875,0.015625 -0.21875,0.015625 -0.015625,0 -0.078125,0.015625 -0.078125,0.09375 0,0.09375 0.0625,0.09375 0.1875,0.09375 z m 0,0"
           id="path9069" />
      </symbol>
      <symbol
         overflow="visible"
         id="symbol2374">
        <path
           style="stroke:none"
           d=""
           id="path4149" />
      </symbol>
      <symbol
         overflow="visible"
         id="symbol7255">
        <path
           style="stroke:none"
           d="m 6.84375,-3.265625 c 0.15625,0 0.34375,0 0.34375,-0.1875 C 7.1875,-3.65625 7,-3.65625 6.859375,-3.65625 h -5.96875 c -0.140625,0 -0.328125,0 -0.328125,0.203125 0,0.1875 0.1875,0.1875 0.328125,0.1875 z m 0.015625,1.9375 c 0.140625,0 0.328125,0 0.328125,-0.203125 0,-0.1875 -0.1875,-0.1875 -0.34375,-0.1875 H 0.890625 c -0.140625,0 -0.328125,0 -0.328125,0.1875 0,0.203125 0.1875,0.203125 0.328125,0.203125 z m 0,0"
           id="path6177" />
      </symbol>
      <symbol
         overflow="visible"
         id="symbol8286">
        <path
           style="stroke:none"
           d="m 1.265625,-0.765625 1.0625,-1.03125 c 1.546875,-1.375 2.140625,-1.90625 2.140625,-2.90625 0,-1.140625 -0.890625,-1.9375 -2.109375,-1.9375 -1.125,0 -1.859375,0.921875 -1.859375,1.8125 0,0.546875 0.5,0.546875 0.53125,0.546875 0.171875,0 0.515625,-0.109375 0.515625,-0.53125 0,-0.25 -0.1875,-0.515625 -0.53125,-0.515625 -0.078125,0 -0.09375,0 -0.125,0.015625 0.21875,-0.65625 0.765625,-1.015625 1.34375,-1.015625 0.90625,0 1.328125,0.8125 1.328125,1.625 C 3.5625,-3.90625 3.078125,-3.125 2.515625,-2.5 l -1.90625,2.125 C 0.5,-0.265625 0.5,-0.234375 0.5,0 H 4.203125 L 4.46875,-1.734375 H 4.234375 C 4.171875,-1.4375 4.109375,-1 4,-0.84375 3.9375,-0.765625 3.28125,-0.765625 3.0625,-0.765625 Z m 0,0"
           id="path9497" />
      </symbol>
    </g>
    <g
       id="g8795">
      <symbol
         overflow="visible"
         id="symbol3425">
        <path
           style="stroke:none"
           d=""
           id="path63" />
      </symbol>
      <symbol
         overflow="visible"
         id="symbol3220">
        <path
           style="stroke:none"
           d="m 2.9375,-6.375 c 0,-0.25 0,-0.265625 -0.234375,-0.265625 C 2.078125,-6 1.203125,-6 0.890625,-6 v 0.3125 c 0.203125,0 0.78125,0 1.296875,-0.265625 v 5.171875 c 0,0.359375 -0.03125,0.46875 -0.921875,0.46875 h -0.3125 V 0 c 0.34375,-0.03125 1.203125,-0.03125 1.609375,-0.03125 0.390625,0 1.265625,0 1.609375,0.03125 v -0.3125 h -0.3125 c -0.90625,0 -0.921875,-0.109375 -0.921875,-0.46875 z m 0,0"
           id="path4982" />
      </symbol>
    </g>
    <g
       id="g2833">
      <symbol
         overflow="visible"
         id="symbol5334">
        <path
           style="stroke:none"
           d=""
           id="path8060" />
      </symbol>
      <symbol
         overflow="visible"
         id="symbol5022">
        <path
           style="stroke:none"
           d="m 1.265625,-0.765625 1.0625,-1.03125 c 1.546875,-1.375 2.140625,-1.90625 2.140625,-2.90625 0,-1.140625 -0.890625,-1.9375 -2.109375,-1.9375 -1.125,0 -1.859375,0.921875 -1.859375,1.8125 0,0.546875 0.5,0.546875 0.53125,0.546875 0.171875,0 0.515625,-0.109375 0.515625,-0.53125 0,-0.25 -0.1875,-0.515625 -0.53125,-0.515625 -0.078125,0 -0.09375,0 -0.125,0.015625 0.21875,-0.65625 0.765625,-1.015625 1.34375,-1.015625 0.90625,0 1.328125,0.8125 1.328125,1.625 C 3.5625,-3.90625 3.078125,-3.125 2.515625,-2.5 l -1.90625,2.125 C 0.5,-0.265625 0.5,-0.234375 0.5,0 H 4.203125 L 4.46875,-1.734375 H 4.234375 C 4.171875,-1.4375 4.109375,-1 4,-0.84375 3.9375,-0.765625 3.28125,-0.765625 3.0625,-0.765625 Z m 0,0"
           id="path3851" />
      </symbol>
    </g>
    <g
       id="g3378">
      <symbol
         overflow="visible"
         id="symbol1124">
        <path
           style="stroke:none"
           d=""
           id="path7742" />
      </symbol>
      <symbol
         overflow="visible"
         id="symbol3071">
        <path
           style="stroke:none"
           d="m 2.890625,-3.515625 c 0.8125,-0.265625 1.390625,-0.953125 1.390625,-1.75 0,-0.8125 -0.875,-1.375 -1.828125,-1.375 -1,0 -1.765625,0.59375 -1.765625,1.359375 0,0.328125 0.21875,0.515625 0.515625,0.515625 0.296875,0 0.5,-0.21875 0.5,-0.515625 0,-0.484375 -0.46875,-0.484375 -0.609375,-0.484375 0.296875,-0.5 0.953125,-0.625 1.3125,-0.625 0.421875,0 0.96875,0.21875 0.96875,1.109375 0,0.125 -0.03125,0.703125 -0.28125,1.140625 C 2.796875,-3.65625 2.453125,-3.625 2.203125,-3.625 2.125,-3.609375 1.890625,-3.59375 1.8125,-3.59375 c -0.078125,0.015625 -0.140625,0.03125 -0.140625,0.125 0,0.109375 0.0625,0.109375 0.234375,0.109375 h 0.4375 c 0.8125,0 1.1875,0.671875 1.1875,1.65625 0,1.359375 -0.6875,1.640625 -1.125,1.640625 -0.4375,0 -1.1875,-0.171875 -1.53125,-0.75 0.34375,0.046875 0.65625,-0.171875 0.65625,-0.546875 0,-0.359375 -0.265625,-0.5625 -0.546875,-0.5625 -0.25,0 -0.5625,0.140625 -0.5625,0.578125 0,0.90625 0.921875,1.5625 2.015625,1.5625 1.21875,0 2.125,-0.90625 2.125,-1.921875 0,-0.8125 -0.640625,-1.59375 -1.671875,-1.8125 z m 0,0"
           id="path1570" />
      </symbol>
    </g>
    <g
       id="g3781">
      <symbol
         overflow="visible"
         id="symbol3666">
        <path
           style="stroke:none"
           d=""
           id="path130" />
      </symbol>
      <symbol
         overflow="visible"
         id="symbol497">
        <path
           style="stroke:none"
           d="m 2.9375,-1.640625 v 0.859375 c 0,0.359375 -0.03125,0.46875 -0.765625,0.46875 H 1.96875 V 0 C 2.375,-0.03125 2.890625,-0.03125 3.3125,-0.03125 c 0.421875,0 0.9375,0 1.359375,0.03125 v -0.3125 h -0.21875 c -0.734375,0 -0.75,-0.109375 -0.75,-0.46875 V -1.640625 H 4.6875 v -0.3125 H 3.703125 v -4.53125 c 0,-0.203125 0,-0.265625 -0.171875,-0.265625 -0.078125,0 -0.109375,0 -0.1875,0.125 l -3.0625,4.671875 v 0.3125 z m 0.046875,-0.3125 H 0.5625 l 2.421875,-3.71875 z m 0,0"
           id="path7810" />
      </symbol>
    </g>
    <g
       id="g8487">
      <symbol
         overflow="visible"
         id="symbol1611">
        <path
           style="stroke:none"
           d=""
           id="path1540" />
      </symbol>
      <symbol
         overflow="visible"
         id="symbol9862">
        <path
           style="stroke:none"
           d="m 4.46875,-2 c 0,-1.1875 -0.8125,-2.1875 -1.890625,-2.1875 -0.46875,0 -0.90625,0.15625 -1.265625,0.515625 V -5.625 c 0.203125,0.0625 0.53125,0.125 0.84375,0.125 1.234375,0 1.9375,-0.90625 1.9375,-1.03125 0,-0.0625 -0.03125,-0.109375 -0.109375,-0.109375 0,0 -0.03125,0 -0.078125,0.03125 C 3.703125,-6.515625 3.21875,-6.3125 2.546875,-6.3125 2.15625,-6.3125 1.6875,-6.390625 1.21875,-6.59375 1.140625,-6.625 1.125,-6.625 1.109375,-6.625 1,-6.625 1,-6.546875 1,-6.390625 V -3.4375 c 0,0.171875 0,0.25 0.140625,0.25 0.078125,0 0.09375,-0.015625 0.140625,-0.078125 C 1.390625,-3.421875 1.75,-3.96875 2.5625,-3.96875 c 0.515625,0 0.765625,0.453125 0.84375,0.640625 0.15625,0.375 0.1875,0.75 0.1875,1.25 0,0.359375 0,0.953125 -0.25,1.375 C 3.109375,-0.3125 2.734375,-0.0625 2.28125,-0.0625 c -0.71875,0 -1.296875,-0.53125 -1.46875,-1.109375 0.03125,0 0.0625,0.015625 0.171875,0.015625 0.328125,0 0.5,-0.25 0.5,-0.484375 0,-0.25 -0.171875,-0.5 -0.5,-0.5 C 0.84375,-2.140625 0.5,-2.0625 0.5,-1.609375 0.5,-0.75 1.1875,0.21875 2.296875,0.21875 3.453125,0.21875 4.46875,-0.734375 4.46875,-2 Z m 0,0"
           id="path3089" />
      </symbol>
    </g>
    <g
       id="g4072">
      <symbol
         overflow="visible"
         id="symbol3280">
        <path
           style="stroke:none"
           d=""
           id="path6552" />
      </symbol>
      <symbol
         overflow="visible"
         id="symbol7956">
        <path
           style="stroke:none"
           d="m 1.3125,-3.265625 v -0.25 c 0,-2.515625 1.234375,-2.875 1.75,-2.875 0.234375,0 0.65625,0.0625 0.875,0.40625 -0.15625,0 -0.546875,0 -0.546875,0.4375 0,0.3125 0.234375,0.46875 0.453125,0.46875 0.15625,0 0.46875,-0.09375 0.46875,-0.484375 0,-0.59375 -0.4375,-1.078125 -1.265625,-1.078125 -1.28125,0 -2.625,1.28125 -2.625,3.484375 0,2.671875 1.15625,3.375 2.078125,3.375 1.109375,0 2.0625,-0.9375 2.0625,-2.25 0,-1.265625 -0.890625,-2.21875 -2,-2.21875 -0.671875,0 -1.046875,0.5 -1.25,0.984375 z M 2.5,-0.0625 c -0.625,0 -0.921875,-0.59375 -0.984375,-0.75 -0.1875,-0.46875 -0.1875,-1.265625 -0.1875,-1.4375 0,-0.78125 0.328125,-1.78125 1.21875,-1.78125 0.171875,0 0.625,0 0.9375,0.625 0.171875,0.359375 0.171875,0.875 0.171875,1.359375 0,0.484375 0,0.984375 -0.171875,1.34375 C 3.1875,-0.109375 2.734375,-0.0625 2.5,-0.0625 Z m 0,0"
           id="path8089" />
      </symbol>
    </g>
    <g
       id="g631">
      <symbol
         overflow="visible"
         id="symbol9188">
        <path
           style="stroke:none"
           d=""
           id="path8471" />
      </symbol>
      <symbol
         overflow="visible"
         id="symbol3959">
        <path
           style="stroke:none"
           d="m 4.75,-6.078125 c 0.078125,-0.109375 0.078125,-0.125 0.078125,-0.34375 H 2.40625 c -1.203125,0 -1.234375,-0.125 -1.265625,-0.3125 h -0.25 L 0.5625,-4.6875 h 0.25 c 0.03125,-0.15625 0.109375,-0.78125 0.25,-0.90625 0.0625,-0.0625 0.84375,-0.0625 0.96875,-0.0625 h 2.0625 C 3.984375,-5.5 3.203125,-4.40625 2.984375,-4.078125 2.078125,-2.734375 1.75,-1.34375 1.75,-0.328125 c 0,0.09375 0,0.546875 0.46875,0.546875 0.453125,0 0.453125,-0.453125 0.453125,-0.546875 V -0.84375 c 0,-0.546875 0.03125,-1.09375 0.109375,-1.625 0.046875,-0.234375 0.171875,-1.09375 0.625,-1.703125 z m 0,0"
           id="path592" />
      </symbol>
    </g>
  </defs>
  <g
     inkscape:label="Layer 1"
     inkscape:groupmode="layer"
     id="layer1"
     transform="translate(6.6991859,-110.27771)">
    <circle
       style="fill:#000000;fill-opacity:1;stroke-width:0.264583"
       id="path846"
       cx="38.40517"
       cy="154.16934"
       r="3.6576355" />
    <circle
       style="fill:#000000;fill-opacity:1;stroke-width:0.264583"
       id="path846-8"
       cx="72.786041"
       cy="154.16934"
       r="3.6576355" />
    <circle
       style="fill:#000000;fill-opacity:1;stroke-width:0.119062"
       id="path846-9-0"
       cx="72.786041"
       cy="133.22937"
       r="1.6459359" />
    <path
       style="fill:none;fill-rule:evenodd;stroke:#000000;stroke-width:0.264583px;stroke-linecap:butt;stroke-linejoin:miter;stroke-opacity:1"
       d="m 72.786041,134.87531 v 15.6364"
       id="path1221"
       inkscape:connector-type="polyline"
       inkscape:connector-curvature="0"
       inkscape:connection-start="#path846-9-0"
       inkscape:connection-end="#path846-8" />
    <circle
       style="fill:#000000;fill-opacity:1;stroke-width:0.264583"
       id="path846-6"
       cx="101.45862"
       cy="154.16934"
       r="3.6576355" />
    <circle
       style="fill:#000000;fill-opacity:1;stroke-width:0.119062"
       id="path846-9-0-2"
       cx="101.45862"
       cy="133.22937"
       r="1.6459359" />
    <circle
       style="fill:#000000;fill-opacity:1;stroke-width:0.119062"
       id="path846-9-0-5"
       cx="101.45862"
       cy="113.47546"
       r="1.6459359" />
    <path
       style="fill:none;fill-rule:evenodd;stroke:#000000;stroke-width:0.264583px;stroke-linecap:butt;stroke-linejoin:miter;stroke-opacity:1"
       d="M 101.45862,131.58343 V 115.12139"
       id="path1217"
       inkscape:connector-type="polyline"
       inkscape:connector-curvature="0"
       inkscape:connection-start="#path846-9-0-2"
       inkscape:connection-end="#path846-9-0-5" />
    <path
       style="fill:none;fill-rule:evenodd;stroke:#000000;stroke-width:0.264583px;stroke-linecap:butt;stroke-linejoin:miter;stroke-opacity:1"
       d="m 101.45862,134.87531 v 15.6364"
       id="path1219"
       inkscape:connector-type="polyline"
       inkscape:connector-curvature="0"
       inkscape:connection-start="#path846-9-0-2"
       inkscape:connection-end="#path846-6" />
    <circle
       style="fill:#000000;fill-opacity:1;stroke-width:0.264583"
       id="path846-9"
       cx="114.94121"
       cy="154.16934"
       r="3.6576355" />
    <circle
       style="fill:#000000;fill-opacity:1;stroke-width:0.119062"
       id="path846-9-0-3"
       cx="108.44889"
       cy="133.22937"
       r="1.6459359" />
    <circle
       style="fill:#000000;fill-opacity:1;stroke-width:0.119062"
       id="path846-9-0-1"
       cx="121.4335"
       cy="133.22937"
       r="1.6459359" />
    <path
       style="fill:none;fill-rule:evenodd;stroke:#000000;stroke-width:0.264583px;stroke-linecap:butt;stroke-linejoin:miter;stroke-opacity:1"
       d="m 108.9363,134.80145 4.92177,15.87438"
       id="path1213"
       inkscape:connector-type="polyline"
       inkscape:connector-curvature="0"
       inkscape:connection-start="#path846-9-0-3"
       inkscape:connection-end="#path846-9" />
    <path
       style="fill:none;fill-rule:evenodd;stroke:#000000;stroke-width:0.264583px;stroke-linecap:butt;stroke-linejoin:miter;stroke-opacity:1"
       d="m 120.94609,134.80145 -4.92174,15.87438"
       id="path1405"
       inkscape:connector-type="polyline"
       inkscape:connector-curvature="0"
       inkscape:connection-start="#path846-9-0-1"
       inkscape:connection-end="#path846-9" />
    <g
       inkscape:label=""
       transform="matrix(0,1.6214744,-2.2825714,0,290.05938,12.251538)"
       id="g2141">
      <g
         id="g7524">
        <g
           style="fill:#000000;fill-opacity:1"
           id="g4280">
          <use
             xlink:href="#symbol6794"
             x="91.925003"
             y="81.962997"
             id="use7186"
             width="100%"
             height="100%" />
        </g>
      </g>
    </g>
    <g
       inkscape:label=""
       transform="matrix(0.63683753,0,0,0.63683753,-65.499193,124.76752)"
       id="g2516">
      <g
         id="g287">
        <g
           style="fill:#000000;fill-opacity:1"
           id="g1279">
          <use
             xlink:href="#symbol9726"
             x="91.925003"
             y="81.962997"
             id="use8606"
             width="100%"
             height="100%" />
        </g>
        <g
           style="fill:#000000;fill-opacity:1"
           id="g3145">
          <use
             xlink:href="#symbol5699"
             x="97.191002"
             y="83.457001"
             id="use353"
             width="100%"
             height="100%" />
        </g>
        <g
           style="fill:#000000;fill-opacity:1"
           id="g8280">
          <use
             xlink:href="#symbol7855"
             x="104.428"
             y="81.962997"
             id="use6499"
             width="100%"
             height="100%" />
        </g>
        <g
           style="fill:#000000;fill-opacity:1"
           id="g9833">
          <use
             xlink:href="#symbol3226"
             x="114.94651"
             y="81.962997"
             id="use2606"
             width="100%"
             height="100%" />
        </g>
      </g>
    </g>
    <g
       inkscape:label=""
       transform="matrix(0.65863876,0,0,0.65863876,-17.45828,122.89862)"
       id="g2739">
      <g
         id="g2252"
         transform="translate(-22.768635,0.27766628)">
        <g
           style="fill:#000000;fill-opacity:1"
           id="g9239">
          <use
             xlink:href="#symbol9576"
             x="91.925003"
             y="81.962997"
             id="use3195"
             width="100%"
             height="100%" />
        </g>
        <g
           style="fill:#000000;fill-opacity:1"
           id="g3021">
          <use
             xlink:href="#symbol5611"
             x="97.191002"
             y="83.457001"
             id="use7985"
             width="100%"
             height="100%" />
        </g>
        <g
           style="fill:#000000;fill-opacity:1"
           id="g5240">
          <use
             xlink:href="#symbol2687"
             x="104.428"
             y="81.962997"
             id="use6185"
             width="100%"
             height="100%" />
        </g>
        <g
           style="fill:#000000;fill-opacity:1"
           id="g481">
          <use
             xlink:href="#symbol7920"
             x="114.94651"
             y="81.962997"
             id="use2926"
             width="100%"
             height="100%" />
        </g>
      </g>
    </g>
    <g
       inkscape:label=""
       transform="matrix(0.64194304,0,0,0.64194304,4.5307497,124.40697)"
       id="g3012">
      <g
         id="g1382">
        <g
           style="fill:#000000;fill-opacity:1"
           id="g9948">
          <use
             xlink:href="#symbol7649"
             x="91.925003"
             y="81.962997"
             id="use9775"
             width="100%"
             height="100%" />
        </g>
        <g
           style="fill:#000000;fill-opacity:1"
           id="g7819">
          <use
             xlink:href="#symbol3547"
             x="97.191002"
             y="83.457001"
             id="use7437"
             width="100%"
             height="100%" />
        </g>
        <g
           style="fill:#000000;fill-opacity:1"
           id="g5915">
          <use
             xlink:href="#symbol6781"
             x="104.428"
             y="81.962997"
             id="use6249"
             width="100%"
             height="100%" />
        </g>
        <g
           style="fill:#000000;fill-opacity:1"
           id="g4899">
          <use
             xlink:href="#symbol5372"
             x="114.94651"
             y="81.962997"
             id="use4201"
             width="100%"
             height="100%" />
        </g>
      </g>
    </g>
    <g
       inkscape:label=""
       transform="matrix(0.65869517,0,0,0.65869517,37.882041,123.03071)"
       id="g3335">
      <g
         id="g1295">
        <g
           style="fill:#000000;fill-opacity:1"
           id="g7494">
          <use
             xlink:href="#symbol3979"
             x="91.925003"
             y="81.962997"
             id="use694"
             width="100%"
             height="100%" />
        </g>
        <g
           style="fill:#000000;fill-opacity:1"
           id="g3110">
          <use
             xlink:href="#symbol5"
             x="97.191002"
             y="83.457001"
             id="use71"
             width="100%"
             height="100%" />
        </g>
        <g
           style="fill:#000000;fill-opacity:1"
           id="g888">
          <use
             xlink:href="#symbol7255"
             x="104.428"
             y="81.962997"
             id="use2149"
             width="100%"
             height="100%" />
        </g>
        <g
           style="fill:#000000;fill-opacity:1"
           id="g3252">
          <use
             xlink:href="#symbol8286"
             x="114.94651"
             y="81.962997"
             id="use6290"
             width="100%"
             height="100%" />
        </g>
      </g>
    </g>
  </g>
</svg>
